<?xml version="1.0" encoding="utf-8"?>
<!-- Generator: Adobe Illustrator 25.4.1, SVG Export Plug-In . SVG Version: 6.00 Build 0)  -->
<svg version="1.1" id="Layer_1" xmlns="http://www.w3.org/2000/svg" xmlns:xlink="http://www.w3.org/1999/xlink" x="0px" y="0px"
	 viewBox="0 0 120 108" style="enable-background:new 0 0 120 108;" xml:space="preserve">
<style type="text/css">
	.st0{fill:#316D91;}
	.st1{fill:#3D8CBE;}
	.st2{fill:#4CACED;}
</style>
<g>
	<path class="st0" d="M53.2,105.9c0.5,0.3,1.1,0.6,1.6,0.8c-2.7-1.1-5-3-6.6-5.8l-46-80.3c-3.7-6.5-1.5-14.7,5-18.4
		c6.5-3.7,14.7-1.5,18.4,4.9l34.3,60L48.3,87.4c-1.2,2.1-1.8,4.5-1.8,6.7C46.5,98.8,48.9,103.4,53.2,105.9z"/>
	<path class="st1" d="M66.7,105.9c-0.5,0.3-1.1,0.6-1.6,0.8c-3.2,1.3-6.9,1.4-10.2,0c-0.5-0.2-1.1-0.5-1.6-0.8
		c-4.3-2.5-6.8-7-6.8-11.7c0-2.3,0.6-4.6,1.8-6.7L60,67.1l11.6,20.3C75.4,93.9,73.1,102.1,66.7,105.9z"/>
	<path class="st2" d="M66.6,105.9C66.7,105.9,66.7,105.9,66.6,105.9C66.7,105.9,66.7,105.9,66.6,105.9
		C66.7,105.9,66.7,105.9,66.6,105.9z"/>
	<path class="st2" d="M65.1,106.7c0.5-0.2,1.1-0.5,1.6-0.8C66.1,106.2,65.6,106.4,65.1,106.7z"/>
	<path class="st2" d="M117.7,20.9l-46.1,80c-1.2,2.1-3,3.8-5,4.9c6.4-3.7,8.6-12,4.9-18.4L60,67.1L94.4,7.4c3.7-6.5,12-8.7,18.4-4.9
		C119.3,6.2,121.5,14.5,117.7,20.9z"/>
</g>
</svg>
