<svg version="1.1" id="Layer_1" xmlns="http://www.w3.org/2000/svg" xmlns:xlink="http://www.w3.org/1999/xlink" x="0px" y="0px"
	 width="100%" viewBox="0 0 1002 239" enable-background="new 0 0 1002 239" xml:space="preserve">
<path fill="#000000" opacity="1.000000" stroke="none" 
	d="
M668.000000,240.000000 
	C445.333344,240.000000 223.166672,240.000000 1.000000,240.000000 
	C1.000000,160.333328 1.000000,80.666664 1.000000,1.000000 
	C335.000000,1.000000 669.000000,1.000000 1003.000000,1.000000 
	C1003.000000,80.666664 1003.000000,160.333328 1003.000000,240.000000 
	C891.500000,240.000000 780.000000,240.000000 668.000000,240.000000 
M816.128418,68.209259 
	C816.128418,68.209259 816.152161,68.130447 817.061401,68.017494 
	C819.375427,68.011742 821.713318,68.215149 823.998291,67.954544 
	C828.125977,67.483772 832.624023,67.599686 836.243896,65.915497 
	C842.857239,62.838547 844.796570,57.996178 842.870239,50.345810 
	C841.420532,44.588562 836.699036,41.889408 830.592224,40.113880 
	C825.756470,40.113880 820.920654,40.113880 815.838562,40.113880 
	C815.838562,34.514103 815.838562,29.763821 815.949524,24.262980 
	C814.208679,21.212828 813.072144,17.492254 810.594666,15.259456 
	C806.161682,11.264126 800.670349,11.104093 795.054932,13.372946 
	C790.921021,15.043187 789.170776,18.439302 789.049316,22.285027 
	C788.788574,30.536943 789.158447,38.808781 789.168518,47.986988 
	C789.202332,52.299805 789.236145,56.612617 789.070007,61.853279 
	C789.047668,73.493340 789.080872,85.133842 788.986328,96.773315 
	C788.902771,107.060112 791.749939,116.895065 797.572144,124.858147 
	C808.450684,139.736542 823.121948,148.728500 842.488159,148.070984 
	C850.711975,147.791794 855.795715,143.194427 856.026428,135.154434 
	C856.242615,127.623947 850.785583,122.349937 842.953674,121.958015 
	C828.565125,121.237976 817.886597,112.185478 815.909241,96.956047 
	C815.954895,87.374313 816.000549,77.792587 816.128418,68.209259 
M887.986389,106.978096 
	C912.302673,106.926094 936.618896,106.874092 961.824707,106.966324 
	C974.652588,107.109550 981.481628,99.064552 977.952393,87.232788 
	C976.029663,81.600136 974.502747,75.793388 972.115173,70.365173 
	C962.135803,47.676704 936.571350,35.697586 912.434753,41.032837 
	C902.988403,43.120907 893.964600,46.452908 887.261475,53.500706 
	C878.576782,62.631969 871.640259,73.011696 870.038879,86.990807 
	C870.026367,89.470383 870.123657,91.956444 869.977844,94.428162 
	C869.695679,99.212357 870.855225,103.450432 875.737854,105.048622 
	C879.325867,106.223030 883.276001,106.290924 887.986389,106.978096 
M555.980164,91.334793 
	C556.270081,90.209816 556.559998,89.084839 556.965332,87.211700 
	C557.692688,85.621338 558.405396,84.024101 559.149658,82.441689 
	C564.490662,71.085121 573.345337,66.013115 585.928772,66.920761 
	C594.588074,67.545357 607.647034,77.729836 608.857300,86.204834 
	C609.832214,93.032082 609.642761,100.025620 609.177551,107.334999 
	C609.118713,115.799232 609.029846,124.263527 609.048645,132.727585 
	C609.050476,133.549957 609.717590,134.370850 609.984558,135.946884 
	C610.845825,137.980850 611.274902,140.389069 612.650574,141.977631 
	C616.560547,146.492676 621.307617,149.216202 627.626648,146.986877 
	C632.442261,145.287933 636.389160,142.842682 637.744690,136.753967 
	C637.826721,120.984322 637.917419,105.214691 637.949890,89.444962 
	C637.950867,88.960205 637.346375,88.474205 636.992493,87.151474 
	C636.657959,85.235291 636.489319,83.272346 635.964172,81.409889 
	C627.104309,49.984722 598.710449,34.941849 569.929016,41.141651 
	C559.193726,43.454124 549.161255,47.834560 542.283447,57.975868 
	C541.853699,57.996864 541.423889,58.017860 540.788452,57.391899 
	C526.272705,42.274990 508.517120,36.982677 488.285126,41.345001 
	C465.094299,46.345284 447.201050,68.700592 447.181702,92.387604 
	C447.121674,96.815033 446.923309,101.246239 447.043701,105.668755 
	C447.147003,109.463104 447.614807,113.247543 447.981750,117.962067 
	C447.987213,122.633751 447.992706,127.305428 447.281982,131.783127 
	C443.847961,124.030663 440.482147,116.247078 436.962341,108.533745 
	C432.733215,99.265976 428.373016,90.058022 424.065002,80.085876 
	C419.278290,69.383316 414.042999,59.064812 404.312103,51.724274 
	C397.266876,46.409676 389.985352,41.899940 380.871826,40.552944 
	C380.590393,40.708988 380.308929,40.865032 380.003876,41.001343 
	C380.003876,41.001343 380.019318,41.029640 379.169800,40.936253 
	C378.420929,40.618088 377.690552,40.079166 376.920410,40.014580 
	C363.563019,38.894318 350.705627,41.009884 339.777161,48.919186 
	C320.184204,63.099277 313.160339,84.237999 317.919312,106.529137 
	C321.812225,124.763374 332.925995,136.984344 349.760834,144.387833 
	C362.856781,150.147095 376.186188,149.352509 389.224640,144.876190 
	C399.803131,141.244431 408.759705,134.848892 415.250488,125.756248 
	C417.487854,130.710526 419.775085,135.643066 421.947937,140.625519 
	C423.913757,145.133423 431.319275,148.064636 436.002228,147.252914 
	C442.910736,146.055405 445.470306,141.307526 447.990265,136.793137 
	C447.871552,140.746384 450.489777,142.884079 453.349060,144.854385 
	C457.820557,147.935669 462.927551,147.970169 467.268982,145.684036 
	C471.062927,143.686203 474.240570,140.316330 474.126953,135.021469 
	C473.895081,124.218323 473.800018,113.401634 474.089111,102.602325 
	C474.237213,97.069160 474.908264,91.468155 476.090149,86.061127 
	C478.754700,73.870773 490.427460,65.942619 502.030151,66.150208 
	C510.770142,66.306587 517.942078,70.718170 523.166016,77.797081 
	C525.036926,80.332344 526.346252,83.282066 527.807861,86.734825 
	C528.205566,93.197083 528.931885,99.659866 528.921326,106.121452 
	C528.906860,115.013214 527.905212,123.914513 528.120728,132.792435 
	C528.344910,142.031219 532.752869,146.310791 541.462341,147.949524 
	C545.647522,148.736969 554.872986,144.046585 556.056519,136.170044 
	C555.979614,121.459953 555.902649,106.749870 555.980164,91.334793 
M764.979126,80.169876 
	C761.044922,68.953979 754.346924,59.609215 745.370972,51.943951 
	C738.358582,45.955563 730.540771,41.493263 720.616333,40.475441 
	C720.141785,40.621883 719.633545,40.962044 719.197571,40.886299 
	C709.633606,39.224491 700.642151,40.192844 691.259583,43.553707 
	C676.271851,48.922306 667.317261,59.697426 661.271484,73.299469 
	C657.467590,81.857643 656.286682,91.036736 657.796997,100.729469 
	C659.607483,112.348343 663.448059,122.630219 671.652527,131.169510 
	C683.867065,143.882568 698.668152,149.880417 716.282104,148.020248 
	C732.616699,146.295212 746.104431,139.451782 755.475281,125.007324 
	C755.475281,125.007324 755.921509,125.085220 756.241577,125.767517 
	C757.176392,128.482880 757.917358,131.284485 759.080139,133.898422 
	C763.677002,144.232010 767.071350,148.618835 778.113770,146.973236 
	C785.368958,145.892044 790.778687,137.235092 788.017883,131.172668 
	C780.381714,114.404442 772.692200,97.660492 764.979126,80.169876 
M75.766022,105.260902 
	C66.765701,87.879753 57.895817,70.428795 48.661503,53.172863 
	C46.673714,49.458336 43.711956,46.077080 40.591133,43.201950 
	C36.180153,39.138233 30.754028,40.214565 26.372530,43.010288 
	C22.481628,45.492973 18.613417,49.497414 19.954033,54.629658 
	C21.572180,60.824364 24.178659,66.857376 27.068865,72.602425 
	C32.418564,83.236374 38.276920,93.614746 43.939575,104.090836 
	C50.256039,115.776497 56.590473,127.452438 62.943092,139.883209 
	C63.355103,145.151978 67.633240,147.627502 71.463058,148.758209 
	C80.841843,151.527191 86.849228,148.042542 91.190605,138.293274 
	C93.601089,133.561768 95.947182,128.796127 98.433182,124.104637 
	C109.348236,103.506172 120.348717,82.952850 131.221527,62.332184 
	C135.344925,54.512028 132.554382,45.395267 125.274750,42.114632 
	C117.628181,38.668629 108.940582,42.553947 105.215454,50.328964 
	C100.212036,60.771984 94.590858,70.917656 89.314056,81.231499 
	C85.126053,89.417206 81.057045,97.663803 76.482651,105.970848 
	C76.482651,105.970848 76.025574,105.911278 75.766022,105.260902 
M177.021194,50.158363 
	C174.342194,42.788792 169.584198,39.796421 160.926773,41.018559 
	C156.561020,41.634861 152.375900,44.283688 151.214203,51.364506 
	C151.192200,79.555840 151.170197,107.747169 151.171051,136.545181 
	C151.430344,137.560745 151.500229,138.677490 151.979813,139.575409 
	C155.002472,145.234665 160.726959,147.972137 167.286514,147.008316 
	C173.177307,146.142761 176.210388,142.687073 177.984512,134.034088 
	C177.989273,107.662796 178.008179,81.291466 177.957657,54.920280 
	C177.955093,53.579304 177.354843,52.239475 177.021194,50.158363 
M261.466370,103.064072 
	C264.303711,92.832603 267.238647,82.626671 269.925323,72.355789 
	C270.862885,68.771645 272.759308,66.961685 276.465057,66.989395 
	C281.463470,67.026779 286.467773,67.134483 291.458313,66.933632 
	C293.329742,66.858322 295.586639,66.513481 296.944611,65.405327 
	C300.751678,62.298626 303.938171,58.435768 302.834015,53.065914 
	C301.723267,47.664036 299.062683,42.755287 293.050873,42.045036 
	C285.699432,41.176514 278.205780,41.582275 270.818665,40.928234 
	C259.932831,39.964428 247.917816,49.681126 245.205185,58.941807 
	C239.766357,77.509392 234.891861,96.245087 230.010757,114.970383 
	C229.224380,117.987137 227.936890,119.758560 224.915680,119.980782 
	C219.824234,120.355270 214.714340,120.486885 209.626419,120.897171 
	C207.251770,121.088661 204.578094,121.111938 202.622696,122.230316 
	C198.470383,124.605202 195.658722,133.325287 197.100327,137.629608 
	C198.955475,143.168671 204.000061,146.882126 210.080856,146.973434 
	C216.244537,147.065994 222.439377,147.370773 228.569077,146.905014 
	C237.898636,146.196106 245.735962,142.666687 251.230087,134.390167 
	C257.432617,125.046425 258.289764,114.158257 261.466370,103.064072 
M896.684326,140.933807 
	C912.367676,149.693802 928.627563,150.707321 945.134399,143.837708 
	C949.995728,141.814590 954.882996,138.991135 958.621033,135.362762 
	C962.738220,131.366348 961.694214,122.741692 958.163757,118.638390 
	C953.200012,112.869324 945.627319,111.559273 939.887329,115.412155 
	C929.349487,122.485481 918.714905,122.761482 907.691589,115.469154 
	C901.069763,111.088608 893.117920,112.535461 888.901917,119.186974 
	C884.117065,126.735825 886.848511,135.135529 896.684326,140.933807 
z"/>
<path fill="#316D91" opacity="1.000000" stroke="none" 
	d="
M414.888672,125.113174 
	C408.759705,134.848892 399.803131,141.244431 389.224640,144.876190 
	C376.186188,149.352509 362.856781,150.147095 349.760834,144.387833 
	C332.925995,136.984344 321.812225,124.763374 317.919312,106.529137 
	C313.160339,84.237999 320.184204,63.099277 339.777161,48.919186 
	C350.705627,41.009884 363.563019,38.894318 376.920410,40.014580 
	C377.690552,40.079166 378.420929,40.618088 379.514282,41.311195 
	C378.844604,42.499596 377.873138,43.374241 376.809235,44.116371 
	C370.899963,48.238438 369.150909,54.503632 372.080994,61.191845 
	C372.742981,62.702919 373.403595,64.214607 373.621887,65.826126 
	C362.927826,65.106239 354.355011,69.518524 348.825836,77.237206 
	C342.347076,86.281456 341.646667,96.830666 346.846283,107.423027 
	C351.415009,116.730110 359.626984,121.020058 368.841187,121.665375 
	C378.039337,122.309563 386.373322,118.110832 392.267426,110.376167 
	C396.641022,104.636841 397.832275,97.898087 398.584900,91.043068 
	C400.015381,92.956520 401.309357,94.676422 402.214752,96.581047 
	C406.550995,105.703156 410.782074,114.875282 415.013916,124.301086 
	C414.947784,124.752762 414.918243,124.932968 414.888672,125.113174 
z"/>
<path fill="#316D91" opacity="1.000000" stroke="none" 
	d="
M755.025452,125.061646 
	C746.104431,139.451782 732.616699,146.295212 716.282104,148.020248 
	C698.668152,149.880417 683.867065,143.882568 671.652527,131.169510 
	C663.448059,122.630219 659.607483,112.348343 657.796997,100.729469 
	C656.286682,91.036736 657.467590,81.857643 661.271484,73.299469 
	C667.317261,59.697426 676.271851,48.922306 691.259583,43.553707 
	C700.642151,40.192844 709.633606,39.224491 719.197571,40.886299 
	C719.633545,40.962044 720.141785,40.621883 720.726379,41.084816 
	C716.785339,44.992714 711.469849,47.742886 711.748230,53.790501 
	C711.937012,57.891251 713.831177,61.913494 714.526123,65.981171 
	C711.506531,66.356552 708.916138,66.676109 706.341858,67.094437 
	C694.033203,69.094635 687.542053,77.541817 684.433105,88.513283 
	C681.938049,97.318443 685.186646,105.658333 691.057312,112.277832 
	C696.857239,118.817551 704.074463,122.577934 713.653320,121.183334 
	C721.630493,120.021927 727.782288,116.708267 732.831787,110.651962 
	C737.631348,104.895538 738.830322,98.062904 739.581909,91.054909 
	C742.971436,97.399902 746.219971,103.548935 749.076843,109.874901 
	C751.311584,114.823395 753.060608,119.991257 755.025452,125.061646 
z"/>
<path fill="#4BACED" opacity="1.000000" stroke="none" 
	d="
M542.921814,57.860321 
	C549.161255,47.834560 559.193726,43.454124 569.929016,41.141651 
	C598.710449,34.941849 627.104309,49.984722 635.964172,81.409889 
	C636.489319,83.272346 636.657959,85.235291 637.003174,88.039330 
	C636.983704,104.997246 636.953613,121.067299 636.923584,137.137360 
	C636.389160,142.842682 632.442261,145.287933 627.626648,146.986877 
	C621.307617,149.216202 616.560547,146.492676 612.650574,141.977631 
	C611.274902,140.389069 610.845825,137.980850 610.042114,135.086121 
	C610.056458,125.132027 610.013184,116.038704 609.969971,106.945374 
	C609.642761,100.025620 609.832214,93.032082 608.857300,86.204834 
	C607.647034,77.729836 594.588074,67.545357 585.928772,66.920761 
	C573.345337,66.013115 564.490662,71.085121 559.149658,82.441689 
	C558.405396,84.024101 557.692688,85.621338 556.574951,87.446877 
	C553.792969,81.104576 551.637024,74.427544 548.917053,67.988808 
	C547.404236,64.407524 544.951172,61.223423 542.921814,57.860321 
z"/>
<path fill="#316D91" opacity="1.000000" stroke="none" 
	d="
M261.314270,103.452103 
	C258.289764,114.158257 257.432617,125.046425 251.230087,134.390167 
	C245.735962,142.666687 237.898636,146.196106 228.569077,146.905014 
	C222.439377,147.370773 216.244537,147.065994 210.080856,146.973434 
	C204.000061,146.882126 198.955475,143.168671 197.100327,137.629608 
	C195.658722,133.325287 198.470383,124.605202 202.622696,122.230316 
	C204.578094,121.111938 207.251770,121.088661 209.626419,120.897171 
	C214.714340,120.486885 219.824234,120.355270 224.915680,119.980782 
	C227.936890,119.758560 229.224380,117.987137 230.010757,114.970383 
	C234.891861,96.245087 239.766357,77.509392 245.205185,58.941807 
	C247.917816,49.681126 259.932831,39.964428 270.818665,40.928234 
	C278.205780,41.582275 285.699432,41.176514 293.050873,42.045036 
	C299.062683,42.755287 301.723267,47.664036 302.834015,53.065914 
	C303.938171,58.435768 300.751678,62.298626 296.944611,65.405327 
	C295.586639,66.513481 293.329742,66.858322 291.458313,66.933632 
	C286.467773,67.134483 281.463470,67.026779 276.465057,66.989395 
	C272.759308,66.961685 270.862885,68.771645 269.925323,72.355789 
	C267.238647,82.626671 264.303711,92.832603 261.314270,103.452103 
z"/>
<path fill="#316D90" opacity="1.000000" stroke="none" 
	d="
M447.946259,91.968513 
	C447.201050,68.700592 465.094299,46.345284 488.285126,41.345001 
	C508.517120,36.982677 526.272705,42.274990 540.898193,58.075809 
	C537.173462,67.489159 533.354492,76.225471 529.465027,84.930313 
	C529.240784,85.432220 528.442871,85.677780 527.911865,86.042633 
	C526.346252,83.282066 525.036926,80.332344 523.166016,77.797081 
	C517.942078,70.718170 510.770142,66.306587 502.030151,66.150208 
	C490.427460,65.942619 478.754700,73.870773 476.090149,86.061127 
	C474.908264,91.468155 474.237213,97.069160 474.089111,102.602325 
	C473.800018,113.401634 473.895081,124.218323 474.126953,135.021469 
	C474.240570,140.316330 471.062927,143.686203 467.268982,145.684036 
	C462.927551,147.970169 457.820557,147.935669 453.349060,144.854385 
	C450.489777,142.884079 447.871552,140.746384 447.981384,136.000000 
	C447.981049,134.130295 447.989594,133.053696 447.998169,131.977112 
	C447.992706,127.305428 447.987213,122.633751 447.984009,117.029556 
	C447.972931,108.054207 447.959595,100.011360 447.946259,91.968513 
z"/>
<path fill="#316D91" opacity="1.000000" stroke="none" 
	d="
M870.161682,86.082230 
	C871.640259,73.011696 878.576782,62.631969 887.261475,53.500706 
	C893.964600,46.452908 902.988403,43.120907 912.434753,41.032837 
	C936.571350,35.697586 962.135803,47.676704 972.115173,70.365173 
	C974.502747,75.793388 976.029663,81.600136 977.620544,87.506966 
	C972.251221,81.163391 965.418457,79.259529 957.446167,79.996323 
	C954.310852,80.286087 951.128784,80.069382 947.691711,80.010040 
	C947.226074,79.915230 947.036743,79.893684 946.735474,79.563766 
	C946.168274,78.769691 945.633240,78.336983 945.269531,77.790298 
	C939.384644,68.944916 928.592529,64.802391 918.318359,66.968071 
	C910.685852,68.576912 905.511475,73.341576 900.659851,79.150406 
	C900.187866,79.421951 900.006348,79.668388 899.437500,79.988510 
	C897.160034,80.019920 895.341858,80.047020 893.523804,80.038757 
	C885.780762,80.003555 877.776306,78.999977 872.016113,86.104256 
	C871.774536,86.402222 870.796570,86.103165 870.161682,86.082230 
z"/>
<path fill="#316D91" opacity="1.000000" stroke="none" 
	d="
M815.841797,97.876816 
	C817.886597,112.185478 828.565125,121.237976 842.953674,121.958015 
	C850.785583,122.349937 856.242615,127.623947 856.026428,135.154434 
	C855.795715,143.194427 850.711975,147.791794 842.488159,148.070984 
	C823.121948,148.728500 808.450684,139.736542 797.572144,124.858147 
	C791.749939,116.895065 788.902771,107.060112 788.986328,96.773315 
	C789.080872,85.133842 789.047668,73.493340 789.496582,61.461494 
	C795.000977,66.371033 801.310242,67.690987 808.376953,67.116333 
	C810.555664,66.939163 812.813782,67.737999 815.017334,68.551788 
	C814.993774,71.145264 814.922241,73.279129 814.994873,75.408081 
	C815.250427,82.898567 815.555542,90.387375 815.841797,97.876816 
z"/>
<path fill="#316D90" opacity="1.000000" stroke="none" 
	d="
M177.860260,134.961334 
	C176.210388,142.687073 173.177307,146.142761 167.286514,147.008316 
	C160.726959,147.972137 155.002472,145.234665 151.979813,139.575409 
	C151.500229,138.677490 151.430344,137.560745 151.393433,135.905273 
	C151.741959,133.948166 151.977524,132.631027 151.978134,131.313782 
	C151.990616,104.513130 151.976196,77.712471 151.967148,50.911819 
	C152.375900,44.283688 156.561020,41.634861 160.926773,41.018559 
	C169.584198,39.796421 174.342194,42.788792 176.995285,51.002815 
	C176.981628,77.454323 176.974060,103.061440 177.043030,128.668335 
	C177.048676,130.766724 177.575562,132.863708 177.860260,134.961334 
z"/>
<path fill="#4CACED" opacity="1.000000" stroke="none" 
	d="
M76.935196,105.883369 
	C81.057045,97.663803 85.126053,89.417206 89.314056,81.231499 
	C94.590858,70.917656 100.212036,60.771984 105.215454,50.328964 
	C108.940582,42.553947 117.628181,38.668629 125.274750,42.114632 
	C132.554382,45.395267 135.344925,54.512028 131.221527,62.332184 
	C120.348717,82.952850 109.348236,103.506172 98.433182,124.104637 
	C95.947182,128.796127 93.601089,133.561768 90.813744,138.290375 
	C88.877472,133.351425 87.683044,128.260193 85.666946,123.518318 
	C83.104698,117.491905 79.876358,111.748688 76.935196,105.883369 
z"/>
<path fill="#336E91" opacity="1.000000" stroke="none" 
	d="
M62.917088,139.132614 
	C56.590473,127.452438 50.256039,115.776497 43.939575,104.090836 
	C38.276920,93.614746 32.418564,83.236374 27.068865,72.602425 
	C24.178659,66.857376 21.572180,60.824364 19.954033,54.629658 
	C18.613417,49.497414 22.481628,45.492973 26.372530,43.010288 
	C30.754028,40.214565 36.180153,39.138233 40.591133,43.201950 
	C43.711956,46.077080 46.673714,49.458336 48.661503,53.172863 
	C57.895817,70.428795 66.765701,87.879753 75.873871,105.958435 
	C72.928200,112.828453 69.568787,118.873489 66.925850,125.217026 
	C65.081467,129.643860 64.218452,134.479553 62.917088,139.132614 
z"/>
<path fill="#3E8CBF" opacity="1.000000" stroke="none" 
	d="
M415.050537,124.029633 
	C410.782074,114.875282 406.550995,105.703156 402.214752,96.581047 
	C401.309357,94.676422 400.015381,92.956520 398.375214,90.714905 
	C394.771606,78.557442 387.459229,70.773697 375.873596,66.653885 
	C375.499176,66.268967 375.242432,66.114548 374.727356,65.944832 
	C374.510345,65.860779 374.064850,65.726006 374.064850,65.726006 
	C373.403595,64.214607 372.742981,62.702919 372.080994,61.191845 
	C369.150909,54.503632 370.899963,48.238438 376.809235,44.116371 
	C377.873138,43.374241 378.844604,42.499596 379.939026,41.357887 
	C380.019318,41.029640 380.003876,41.001343 380.251190,41.031784 
	C380.498505,41.062222 380.969238,41.017910 380.969238,41.017910 
	C389.985352,41.899940 397.266876,46.409676 404.312103,51.724274 
	C414.042999,59.064812 419.278290,69.383316 424.037109,80.902359 
	C424.209961,83.684883 424.421906,85.649849 424.609619,87.617126 
	C425.879242,100.923622 423.194275,113.193588 415.050537,124.029633 
M398.532227,88.521103 
	C398.532227,88.521103 398.494446,88.545418 398.532227,88.521103 
z"/>
<path fill="#3E8CBF" opacity="1.000000" stroke="none" 
	d="
M755.250366,125.034485 
	C753.060608,119.991257 751.311584,114.823395 749.076843,109.874901 
	C746.219971,103.548935 742.971436,97.399902 739.515625,90.819359 
	C739.139526,90.464096 739.003662,89.993958 739.010742,89.673264 
	C738.736389,88.560432 738.455017,87.768303 738.018311,86.652985 
	C737.000427,84.787422 736.109802,83.259895 735.279663,81.700203 
	C731.082520,73.814926 724.553162,68.974236 715.827881,66.669174 
	C715.545959,66.275459 715.324585,66.131256 715.004639,66.065147 
	C714.960754,66.059395 714.962708,65.970840 714.962708,65.970840 
	C713.831177,61.913494 711.937012,57.891251 711.748230,53.790501 
	C711.469849,47.742886 716.785339,44.992714 720.914795,41.367554 
	C730.540771,41.493263 738.358582,45.955563 745.370972,51.943951 
	C754.346924,59.609215 761.044922,68.953979 764.990112,80.992188 
	C765.189087,87.429314 765.866333,93.080132 765.456360,98.650940 
	C764.749207,108.260399 761.266785,117.054031 755.921509,125.085220 
	C755.921509,125.085220 755.475281,125.007324 755.250366,125.034485 
z"/>
<path fill="#3E8CBF" opacity="1.000000" stroke="none" 
	d="
M527.859863,86.388733 
	C528.442871,85.677780 529.240784,85.432220 529.465027,84.930313 
	C533.354492,76.225471 537.173462,67.489159 541.000977,58.399284 
	C541.423889,58.017860 541.853699,57.996864 542.602661,57.918098 
	C544.951172,61.223423 547.404236,64.407524 548.917053,67.988808 
	C551.637024,74.427544 553.792969,81.104576 556.517212,87.820961 
	C556.559998,89.084839 556.270081,90.209816 555.712036,92.049042 
	C555.349854,107.125954 555.249573,121.488586 555.192627,135.851395 
	C555.190979,136.272842 555.646057,136.696075 555.888184,137.118469 
	C554.872986,144.046585 545.647522,148.736969 541.462341,147.949524 
	C532.752869,146.310791 528.344910,142.031219 528.120728,132.792435 
	C527.905212,123.914513 528.906860,115.013214 528.921326,106.121452 
	C528.931885,99.659866 528.205566,93.197083 527.859863,86.388733 
z"/>
<path fill="#4CACED" opacity="1.000000" stroke="none" 
	d="
M896.367920,140.730682 
	C886.848511,135.135529 884.117065,126.735825 888.901917,119.186974 
	C893.117920,112.535461 901.069763,111.088608 907.691589,115.469154 
	C918.714905,122.761482 929.349487,122.485481 939.887329,115.412155 
	C945.627319,111.559273 953.200012,112.869324 958.163757,118.638390 
	C961.694214,122.741692 962.738220,131.366348 958.621033,135.362762 
	C954.882996,138.991135 949.995728,141.814590 945.134399,143.837708 
	C928.627563,150.707321 912.367676,149.693802 896.367920,140.730682 
z"/>
<path fill="#4AACED" opacity="1.000000" stroke="none" 
	d="
M899.896912,79.967934 
	C900.006348,79.668388 900.187866,79.421951 900.904297,79.516022 
	C916.527161,79.826317 931.687256,79.849228 946.847351,79.872139 
	C947.036743,79.893684 947.226074,79.915230 947.756653,80.379425 
	C949.054504,84.493240 950.702515,88.142136 950.821716,91.840317 
	C951.058960,99.200035 954.300964,104.029236 960.935181,106.822090 
	C936.618896,106.874092 912.302673,106.926094 887.759521,106.688416 
	C892.682861,103.979767 895.836609,100.079445 896.858459,94.386429 
	C897.725891,89.554161 898.873413,84.772179 899.896912,79.967934 
z"/>
<path fill="#4DACEC" opacity="1.000000" stroke="none" 
	d="
M756.081543,125.426369 
	C761.266785,117.054031 764.749207,108.260399 765.456360,98.650940 
	C765.866333,93.080132 765.189087,87.429314 765.012390,81.360718 
	C772.692200,97.660492 780.381714,114.404442 788.017883,131.172668 
	C790.778687,137.235092 785.368958,145.892044 778.113770,146.973236 
	C767.071350,148.618835 763.677002,144.232010 759.080139,133.898422 
	C757.917358,131.284485 757.176392,128.482880 756.081543,125.426369 
z"/>
<path fill="#4CACED" opacity="1.000000" stroke="none" 
	d="
M415.013916,124.301094 
	C423.194275,113.193588 425.879242,100.923622 424.609619,87.617126 
	C424.421906,85.649849 424.209961,83.684883 424.039398,81.271500 
	C428.373016,90.058022 432.733215,99.265976 436.962341,108.533745 
	C440.482147,116.247078 443.847961,124.030663 447.640076,131.880127 
	C447.989594,133.053696 447.981049,134.130295 447.985046,135.610413 
	C445.470306,141.307526 442.910736,146.055405 436.002228,147.252914 
	C431.319275,148.064636 423.913757,145.133423 421.947937,140.625519 
	C419.775085,135.643066 417.487854,130.710526 415.069580,125.434708 
	C414.918243,124.932968 414.947784,124.752762 415.013916,124.301094 
z"/>
<path fill="#3E8CBF" opacity="1.000000" stroke="none" 
	d="
M62.930092,139.507904 
	C64.218452,134.479553 65.081467,129.643860 66.925850,125.217026 
	C69.568787,118.873489 72.928200,112.828453 76.003647,106.283630 
	C76.025574,105.911278 76.482651,105.970848 76.708923,105.927109 
	C79.876358,111.748688 83.104698,117.491905 85.666946,123.518318 
	C87.683044,128.260193 88.877472,133.351425 90.651291,138.605606 
	C86.849228,148.042542 80.841843,151.527191 71.463058,148.758209 
	C67.633240,147.627502 63.355103,145.151978 62.930092,139.507904 
z"/>
<path fill="#326D91" opacity="1.000000" stroke="none" 
	d="
M789.270203,47.072464 
	C789.158447,38.808781 788.788574,30.536943 789.049316,22.285027 
	C789.170776,18.439302 790.921021,15.043187 795.054932,13.372946 
	C800.670349,11.104093 806.161682,11.264126 810.594666,15.259456 
	C813.072144,17.492254 814.208679,21.212828 815.584351,24.924198 
	C815.198853,30.666124 815.178528,35.746834 814.681580,40.858311 
	C805.353638,40.773769 796.311829,39.890202 789.270203,47.072464 
z"/>
<path fill="#4CACED" opacity="1.000000" stroke="none" 
	d="
M831.040283,40.849487 
	C836.699036,41.889408 841.420532,44.588562 842.870239,50.345810 
	C844.796570,57.996178 842.857239,62.838547 836.243896,65.915497 
	C832.624023,67.599686 828.125977,67.483772 823.998291,67.954544 
	C821.713318,68.215149 819.375427,68.011742 816.541504,67.603813 
	C815.987061,58.477776 815.952576,49.765419 816.391602,41.025932 
	C821.590210,40.949028 826.315247,40.899258 831.040283,40.849487 
z"/>
<path fill="#3D8CC0" opacity="1.000000" stroke="none" 
	d="
M815.918030,41.053062 
	C815.952576,49.765419 815.987061,58.477776 816.086853,67.660294 
	C816.152161,68.130447 816.128418,68.209259 815.838745,68.145493 
	C815.377991,68.084465 815.206787,68.087196 815.035522,68.089935 
	C812.813782,67.737999 810.555664,66.939163 808.376953,67.116333 
	C801.310242,67.690987 795.000977,66.371033 789.596558,60.997574 
	C789.236145,56.612617 789.202332,52.299805 789.219360,47.529724 
	C796.311829,39.890202 805.353638,40.773769 814.878052,40.893814 
	C815.551086,40.898548 815.918030,41.053062 815.918030,41.053062 
z"/>
<path fill="#3E8CBF" opacity="1.000000" stroke="none" 
	d="
M961.379944,106.894211 
	C954.300964,104.029236 951.058960,99.200035 950.821716,91.840317 
	C950.702515,88.142136 949.054504,84.493240 948.032959,80.452682 
	C951.128784,80.069382 954.310852,80.286087 957.446167,79.996323 
	C965.418457,79.259529 972.251221,81.163391 977.593384,87.906075 
	C981.481628,99.064552 974.652588,107.109550 961.379944,106.894211 
z"/>
<path fill="#3E8CBF" opacity="1.000000" stroke="none" 
	d="
M899.437500,79.988510 
	C898.873413,84.772179 897.725891,89.554161 896.858459,94.386429 
	C895.836609,100.079445 892.682861,103.979767 887.298706,106.625328 
	C883.276001,106.290924 879.325867,106.223030 875.737854,105.048622 
	C870.855225,103.450432 869.695679,99.212357 869.977844,94.428162 
	C870.123657,91.956444 870.026367,89.470383 870.100281,86.536514 
	C870.796570,86.103165 871.774536,86.402222 872.016113,86.104256 
	C877.776306,78.999977 885.780762,80.003555 893.523804,80.038757 
	C895.341858,80.047020 897.160034,80.019920 899.437500,79.988510 
z"/>
<path fill="#6B95AF" opacity="1.000000" stroke="none" 
	d="
M151.590668,51.138161 
	C151.976196,77.712471 151.990616,104.513130 151.978134,131.313782 
	C151.977524,132.631027 151.741959,133.948166 151.381989,135.601929 
	C151.170197,107.747169 151.192200,79.555840 151.590668,51.138161 
z"/>
<path fill="#6994AE" opacity="1.000000" stroke="none" 
	d="
M177.922394,134.497711 
	C177.575562,132.863708 177.048676,130.766724 177.043030,128.668335 
	C176.974060,103.061440 176.981628,77.454323 177.001129,51.373188 
	C177.354843,52.239475 177.955093,53.579304 177.957657,54.920280 
	C178.008179,81.291466 177.989273,107.662796 177.922394,134.497711 
z"/>
<path fill="#FFFFFF" opacity="1.000000" stroke="none" 
	d="
M637.334106,136.945663 
	C636.953613,121.067299 636.983704,104.997246 637.019043,88.457977 
	C637.346375,88.474205 637.950867,88.960205 637.949890,89.444962 
	C637.917419,105.214691 637.826721,120.984322 637.334106,136.945663 
z"/>
<path fill="#6BA2C4" opacity="1.000000" stroke="none" 
	d="
M555.972351,136.644257 
	C555.646057,136.696075 555.190979,136.272842 555.192627,135.851395 
	C555.249573,121.488586 555.349854,107.125954 555.634766,92.401535 
	C555.902649,106.749870 555.979614,121.459953 555.972351,136.644257 
z"/>
<path fill="#B4CFDE" opacity="1.000000" stroke="none" 
	d="
M816.391602,41.025932 
	C815.918030,41.053062 815.551086,40.898548 815.354614,40.863045 
	C815.178528,35.746834 815.198853,30.666124 815.528870,25.299477 
	C815.838562,29.763821 815.838562,34.514103 815.838562,40.113880 
	C820.920654,40.113880 825.756470,40.113880 830.816284,40.481686 
	C826.315247,40.899258 821.590210,40.949028 816.391602,41.025932 
z"/>
<path fill="#BDD3D6" opacity="1.000000" stroke="none" 
	d="
M815.017334,68.551788 
	C815.206787,68.087196 815.377991,68.084465 815.797668,68.146286 
	C816.000549,77.792587 815.954895,87.374313 815.875488,97.416428 
	C815.555542,90.387375 815.250427,82.898567 814.994873,75.408081 
	C814.922241,73.279129 814.993774,71.145264 815.017334,68.551788 
z"/>
<path fill="#FFFFFF" opacity="1.000000" stroke="none" 
	d="
M609.573730,107.140182 
	C610.013184,116.038704 610.056458,125.132027 610.087769,134.708893 
	C609.717590,134.370850 609.050476,133.549957 609.048645,132.727585 
	C609.029846,124.263527 609.118713,115.799232 609.573730,107.140182 
z"/>
<path fill="#97B5C8" opacity="1.000000" stroke="none" 
	d="
M447.563965,92.178055 
	C447.959595,100.011360 447.972931,108.054207 447.953827,116.566711 
	C447.614807,113.247543 447.147003,109.463104 447.043701,105.668755 
	C446.923309,101.246239 447.121674,96.815033 447.563965,92.178055 
z"/>
<path fill="#316D91" opacity="1.000000" stroke="none" 
	d="
M380.920532,40.785427 
	C380.969238,41.017910 380.498505,41.062222 380.263000,41.041649 
	C380.308929,40.865032 380.590393,40.708988 380.920532,40.785427 
z"/>
<path fill="#000000" opacity="1.000000" stroke="none" 
	d="
M373.621887,65.826126 
	C374.064850,65.726006 374.510345,65.860779 374.800476,66.202621 
	C375.404633,66.634842 375.718628,66.725227 376.032654,66.815613 
	C387.459229,70.773697 394.771606,78.557442 398.059631,90.606491 
	C397.832275,97.898087 396.641022,104.636841 392.267426,110.376167 
	C386.373322,118.110832 378.039337,122.309563 368.841187,121.665375 
	C359.626984,121.020058 351.415009,116.730110 346.846283,107.423027 
	C341.646667,96.830666 342.347076,86.281456 348.825836,77.237206 
	C354.355011,69.518524 362.927826,65.106239 373.621887,65.826126 
z"/>
<path fill="#000000" opacity="1.000000" stroke="none" 
	d="
M715.943054,66.834831 
	C724.553162,68.974236 731.082520,73.814926 735.279663,81.700203 
	C736.109802,83.259895 737.000427,84.787422 737.935730,86.994720 
	C738.340149,88.437752 738.671936,89.215851 739.003662,89.993958 
	C739.003662,89.993958 739.139526,90.464096 739.205811,90.699646 
	C738.830322,98.062904 737.631348,104.895538 732.831787,110.651962 
	C727.782288,116.708267 721.630493,120.021927 713.653320,121.183334 
	C704.074463,122.577934 696.857239,118.817551 691.057312,112.277832 
	C685.186646,105.658333 681.938049,97.318443 684.433105,88.513283 
	C687.542053,77.541817 694.033203,69.094635 706.341858,67.094437 
	C708.916138,66.676109 711.506531,66.356552 714.526123,65.981171 
	C714.962708,65.970840 714.960754,66.059395 715.038574,66.301285 
	C715.116394,66.543167 715.466919,66.866951 715.466919,66.866951 
	C715.466919,66.866951 715.943054,66.834831 715.943054,66.834831 
z"/>
<path fill="#000000" opacity="1.000000" stroke="none" 
	d="
M946.735474,79.563766 
	C931.687256,79.849228 916.527161,79.826317 901.122681,79.437790 
	C905.511475,73.341576 910.685852,68.576912 918.318359,66.968071 
	C928.592529,64.802391 939.384644,68.944916 945.269531,77.790298 
	C945.633240,78.336983 946.168274,78.769691 946.735474,79.563766 
z"/>
<path fill="#316D91" opacity="1.000000" stroke="none" 
	d="
M398.513336,88.533264 
	C398.494446,88.545418 398.532227,88.521103 398.513336,88.533264 
z"/>
<path fill="#316D91" opacity="1.000000" stroke="none" 
	d="
M375.873596,66.653877 
	C375.718628,66.725227 375.404633,66.634842 375.017487,66.286667 
	C375.242432,66.114548 375.499176,66.268967 375.873596,66.653877 
z"/>
<path fill="#316D91" opacity="1.000000" stroke="none" 
	d="
M739.010742,89.673256 
	C738.671936,89.215851 738.340149,88.437752 738.090942,87.317917 
	C738.455017,87.768303 738.736389,88.560432 739.010742,89.673256 
z"/>
<path fill="#316D91" opacity="1.000000" stroke="none" 
	d="
M715.827881,66.669174 
	C715.943054,66.834831 715.466919,66.866951 715.466919,66.866951 
	C715.466919,66.866951 715.116394,66.543167 715.082520,66.307037 
	C715.324585,66.131256 715.545959,66.275459 715.827881,66.669174 
z"/>
</svg>