<?xml version="1.0" encoding="utf-8"?>
<!-- Generator: Adobe Illustrator 25.4.1, SVG Export Plug-In . SVG Version: 6.00 Build 0)  -->
<svg version="1.1" id="Layer_1" xmlns="http://www.w3.org/2000/svg" xmlns:xlink="http://www.w3.org/1999/xlink" x="0px" y="0px"
	 viewBox="0 0 1002 137" style="enable-background:new 0 0 1002 137;" xml:space="preserve">
<style type="text/css">
	.st0{fill:#316D91;}
	.st1{fill:#3D8CBE;}
	.st2{fill:#4CACED;}
	.st3{opacity:0.53;}
</style>
<g>
	<path class="st0" d="M151.6,136.2L151.6,136.2c-7.5,0-13.5-6-13.5-13.5v-80c0-7.5,6-13.5,13.5-13.5h0c7.5,0,13.5,6,13.5,13.5v80
		C165.1,130.2,159,136.2,151.6,136.2z"/>
	<g>
		<path class="st0" d="M53.8,134.4c0.5,0.3,1.1,0.6,1.6,0.8c-2.7-1.1-5-3-6.6-5.8l-46-80.3c-3.7-6.5-1.5-14.7,5-18.4
			c6.5-3.7,14.7-1.5,18.4,4.9l34.3,60L48.8,116c-1.2,2.1-1.8,4.5-1.8,6.7C47,127.4,49.4,131.9,53.8,134.4z"/>
		<path class="st1" d="M67.2,134.4c-0.5,0.3-1.1,0.6-1.6,0.8c-3.2,1.3-6.9,1.4-10.2,0c-0.5-0.2-1.1-0.5-1.6-0.8
			c-4.3-2.5-6.8-7-6.8-11.7c0-2.3,0.6-4.6,1.8-6.7l11.7-20.3L72.2,116C75.9,122.4,73.7,130.7,67.2,134.4z"/>
		<path class="st2" d="M67.2,134.5C67.2,134.5,67.2,134.4,67.2,134.5C67.2,134.4,67.2,134.4,67.2,134.5
			C67.2,134.4,67.2,134.5,67.2,134.5z"/>
		<path class="st2" d="M65.6,135.2c0.5-0.2,1.1-0.5,1.6-0.8C66.7,134.8,66.2,135,65.6,135.2z"/>
		<path class="st2" d="M118.3,49.5l-46.1,80c-1.2,2.1-3,3.8-5,4.9c6.4-3.7,8.6-12,4.9-18.4L60.5,95.7L94.9,36
			c3.7-6.5,12-8.7,18.4-4.9C119.8,34.8,122,43,118.3,49.5z"/>
	</g>
	<path class="st0" d="M288.7,42.4c0,1.5-0.3,3-0.8,4.4c-0.7,1.9-1.8,3.5-3.2,4.9c-2.4,2.4-5.8,3.8-9.5,3.8l-9,0
		c-4.9,0-9.2,3.3-10.5,8L248.5,89l-6.1,22.4l-1.3,4.9c-0.1,0.4-0.2,0.8-0.4,1.2c-2,4.9-5.2,9.2-9.2,12.4c-2.4,1.9-5.1,3.5-8,4.6
		c-1.2,0.5-2.4,0.9-3.7,1.2c-1.1,0.1-2.9,0.3-3.9,0.5l-8.3,0l-11,0c-7.5,0-13.5-5.8-13.5-13.1c0-2,0.4-3.8,1.2-5.5
		c2.1-4.5,6.8-7.6,12.2-7.6l9.9,0c4.9,0,9.2-3.3,10.5-8l6.6-24.2L230,55l1.8-6.8c0.2-0.6,0.3-1.1,0.6-1.6c1.1-2.4,2.5-4.6,4.1-6.6
		c4.1-5,9.8-8.8,16.4-10.3c0,0,0,0,0,0c0.8-0.2,1.7-0.3,2.5-0.3l10.3,0l9.4,0C282.6,29.2,288.7,35.1,288.7,42.4z"/>
	<g>
		<path class="st0" d="M403.9,113.5c-9.7,13.7-25.7,22.7-43.7,22.7c-29.5,0-53.5-24-53.5-53.5c0-29.5,24-53.5,53.5-53.5
			c3.6,0,7.2,0.4,10.6,1c-5,0.7-9.4,4.2-11,9.4c-2.1,6.9,1.7,14.2,8.4,16.5c-2.5-0.8-5.2-1.2-8-1.2c-15.3,0-27.7,12.4-27.7,27.7
			s12.4,27.7,27.7,27.7s27.7-12.4,27.7-27.7c0-1.4-0.1-2.8-0.3-4.2L403.9,113.5z"/>
		<path class="st2" d="M427.9,133.3c-1.8,0.9-3.8,1.3-5.7,1.3c-5,0-9.8-2.9-12.1-7.7l-6.2-13.3c6.1-8.7,9.8-19.3,9.8-30.8
			c0-4.6-0.6-9.1-1.7-13.3c-0.5-2-1.1-3.9-1.9-5.8l2.8,6.1l21.4,45.8C437.5,122.2,434.6,130.2,427.9,133.3z"/>
		<path class="st1" d="M413.7,82.7c0,11.5-3.6,22.1-9.8,30.8l-16.3-35l0,0c-0.8-5.4-3.1-10.2-6.6-14.1l0,0
			c-3.3-3.7-7.5-6.5-12.3-8.1c-0.2-0.1-0.4-0.1-0.5-0.2c-6.7-2.3-10.5-9.6-8.4-16.5c1.6-5.2,6-8.7,11-9.4c5.6,1.1,10.9,3.1,15.8,5.9
			c8.6,4.9,15.7,12,20.5,20.7l3.2,6.8c0.7,1.9,1.3,3.8,1.9,5.8C413.1,73.7,413.7,78.1,413.7,82.7z"/>
	</g>
	<g>
		<path class="st0" d="M758.5,113.5c-9.7,13.7-25.7,22.7-43.7,22.7c-29.6,0-53.5-24-53.5-53.5c0-29.5,23.9-53.5,53.5-53.5
			c3.6,0,7.1,0.4,10.6,1c-5,0.7-9.4,4.2-11,9.4c-2.1,6.9,1.7,14.2,8.4,16.5c-2.5-0.8-5.2-1.2-8-1.2C699.4,55,687,67.4,687,82.7
			s12.4,27.7,27.7,27.7c15.3,0,27.7-12.4,27.7-27.7c0-1.4-0.1-2.8-0.3-4.2L758.5,113.5z"/>
		<path class="st2" d="M782.5,133.3c-1.8,0.9-3.8,1.3-5.7,1.3c-5,0-9.8-2.9-12.1-7.7l-6.2-13.3c6.1-8.7,9.8-19.3,9.8-30.8
			c0-4.6-0.6-9.1-1.7-13.3c-0.5-2-1.1-3.9-1.9-5.8l2.8,6.1l21.4,45.8C792.1,122.2,789.2,130.2,782.5,133.3z"/>
		<path class="st1" d="M768.3,82.7c0,11.5-3.6,22.1-9.8,30.8l-16.3-35l0,0c-0.8-5.4-3.1-10.2-6.6-14.1l0,0
			c-3.3-3.7-7.5-6.5-12.3-8.1c-0.2-0.1-0.4-0.1-0.5-0.2c-6.7-2.3-10.5-9.6-8.4-16.5c1.6-5.2,6-8.7,11-9.4c5.6,1.1,10.9,3.1,15.8,5.9
			c8.6,4.9,15.7,12,20.5,20.7l3.2,6.8c0.7,1.9,1.3,3.8,1.9,5.8C767.7,73.7,768.3,78.1,768.3,82.7z"/>
	</g>
	<g>
		<path class="st1" d="M562,76.6c0,0.1,0,0.2-0.1,0.4v45.8c0,2.5-0.7,4.8-1.9,6.8c-2.3,4-6.7,6.7-11.6,6.7c-4.9,0-9.1-2.6-11.5-6.4
			c-1.3-2.1-2-4.5-2-7.1V83.7c0-1.8,0.1-3.5,0.2-5.2v0c1.1-11.8,6-22.5,13.5-30.9c7,7.8,11.7,17.7,13.2,28.5
			C562,76.2,562,76.4,562,76.6z"/>
		<path class="st0" d="M548.7,47.5c-7.5,8.4-12.4,19.1-13.5,30.9v0c-0.2,1.7-0.2,3.5-0.2,5.2v-3.9c0-2.2-0.3-4.4-1.1-6.5
			c-3.9-10.7-14.1-18.4-26.2-18.4c-10.9,0-20.4,6.3-24.9,15.5c-1.4,2.9-2.1,6.1-2.1,9.3v43.1c0,2.5-0.7,4.8-1.9,6.8
			c-2.3,4-6.6,6.6-11.6,6.7c-7.5,0.1-13.6-6.4-13.6-13.9V83.7c0-19.6,10.3-36.8,25.9-46.3c8.3-5.1,18.1-8.1,28.6-8.1
			c10.3,0,19.9,2.9,28.2,7.8C540.9,39.9,545.1,43.4,548.7,47.5z"/>
		<path class="st2" d="M642.7,72.7c0.4,2,0.6,4,0.6,6.1v44c0,7.5-6,13.5-13.5,13.5c-4.9,0-9.1-2.6-11.5-6.4c-1.3-2.1-2-4.5-2-7.1V80
			c0-2.9-0.5-5.8-1.7-8.5c-4.3-9.8-14.1-16.6-25.4-16.6c-13.2,0-24.3,9.3-27.1,21.7c0,0,0,0,0,0c-1.4-11.1-6.2-21.1-13.3-29.1
			c3.5-4,7.6-7.4,12.1-10.2c8.3-5.1,18.1-8.1,28.6-8.1c10.3,0,19.9,2.9,28.1,7.8C630.3,44.8,639.6,57.6,642.7,72.7z"/>
	</g>
	<g>
		<path class="st0" d="M835.2,14.3V29h-13.5c-7.5,0-13.5,6-13.5,13.5V14.3c0-7.5,6-13.5,13.5-13.5c3.7,0,7.1,1.5,9.5,4
			C833.7,7.2,835.2,10.5,835.2,14.3z"/>
		<path class="st1" d="M835.2,29v27h-13.5c-2,0-4-0.5-5.7-1.2c-4.6-2.2-7.8-6.8-7.8-12.2c0-7.5,6-13.5,13.5-13.5H835.2z"/>
		<path class="st2" d="M862.6,42.5c0,3.7-1.5,7.1-4,9.5c-2.4,2.5-5.8,4-9.5,4h-13.9V29h13.9c1.5,0,2.9,0.2,4.2,0.7h0
			C858.7,31.4,862.6,36.5,862.6,42.5z"/>
		<path class="st0" d="M874.8,125.1c-1.1,6.5-6.8,11.1-13.1,11.2h-0.2c-0.2,0-0.4,0-0.7,0c-5.5-0.1-10.8-1-15.8-2.7
			c-14.4-4.7-26.1-15.4-32.2-29.1c-0.6-1.4-1.2-2.8-1.7-4.2c-1.9-5.5-3-11.4-3-17.6V42.5c0,5.4,3.2,10.1,7.8,12.2
			c1.7,0.8,3.6,1.2,5.7,1.2h13.5v26.6c0,10.1,4.9,19.8,13.4,24c0.3,0.2,0.9,0.4,1.2,0.5c4.6,1.2,9.3,1.6,14,2.4
			c1.2,0.2,2.4,0.6,3.4,1.1C872.6,113.1,875.9,118.9,874.8,125.1z"/>
	</g>
	<g>
		<path class="st3" d="M1001,82.2v0.3c0,0,0,0,0,0C1001,82.4,1001,82.3,1001,82.2z"/>
		<path class="st3" d="M1001,82.5L1001,82.5C1001,82.5,1001,82.5,1001,82.5C1001,82.5,1001,82.5,1001,82.5z"/>
		<path class="st3" d="M1001,82.5L1001,82.5C1001,82.6,1001,82.6,1001,82.5C1001,82.6,1001,82.6,1001,82.5z"/>
		<path class="st3" d="M1001,82.6v0.2c0,0,0,0,0,0c0,0.1,0,0.2,0,0.3C1001,82.9,1001,82.8,1001,82.6C1001,82.6,1001,82.6,1001,82.6z
			"/>
		<path class="st0" d="M1001,82.2c0,0.1,0,0.2,0,0.2c-0.1-7.3-6.1-13.2-13.5-13.2h-16.8c-4.7-8.3-13.6-13.8-23.8-13.8
			s-19.1,5.6-23.8,13.8h-16.8c-7.4,0-13.3,5.9-13.5,13.2c0-0.1,0-0.1,0-0.2c0-20,10.9-37.5,27-46.8c7.9-4.6,17.2-7.2,27-7.2
			c9.8,0,19.1,2.6,27,7.2C990.1,44.8,1001,62.2,1001,82.2z"/>
		<path class="st3" d="M894,87.8c0.5,1.3,1.3,2.5,2.2,3.6C895.2,90.3,894.5,89.1,894,87.8z M1000.4,86.8c0.3-1.1,0.5-2.2,0.6-3.3
			L1000.4,86.8z M999.1,89.7c0.4-0.6,0.7-1.2,0.9-1.9C999.8,88.5,999.4,89.1,999.1,89.7z M995.1,93.9c0.4-0.3,0.9-0.6,1.2-1
			C996,93.3,995.6,93.6,995.1,93.9z M993.8,94.7c0.5-0.2,0.9-0.5,1.3-0.8C994.7,94.2,994.3,94.5,993.8,94.7z"/>
		<path class="st1" d="M923.2,69.3c-1.6,2.8-2.7,5.9-3.2,9.3v4.2c0,0.8-0.1,1.6-0.2,2.4v0c-1.1,6.3-6.6,11.1-13.3,11.1
			c-3.6,0-6.9-1.4-9.4-3.8c-0.2-0.2-0.3-0.3-0.5-0.5c-0.2-0.2-0.3-0.4-0.5-0.5c-0.9-1.1-1.6-2.3-2.2-3.6c-0.1-0.3-0.2-0.7-0.4-1
			c-0.2-0.5-0.3-1-0.4-1.5c-0.1-0.3-0.1-0.7-0.1-1c0-0.3-0.1-0.5-0.1-0.8c0-0.1,0-0.2,0-0.4c0-0.2,0-0.3,0-0.5c0,0,0,0,0,0s0,0,0,0
			s0,0,0,0v0c0,0,0,0,0,0c0,0,0,0,0,0c0,0,0,0,0,0c0.2-7.3,6.1-13.2,13.5-13.2H923.2z"/>
		<path class="st1" d="M1001,82.5C1001,82.5,1001,82.5,1001,82.5L1001,82.5C1001,82.6,1001,82.6,1001,82.5
			C1001,82.6,1001,82.6,1001,82.5C1001,82.6,1001,82.6,1001,82.5c0,0.2,0,0.4,0,0.6l0,0.3l-0.6,3.3c-0.1,0.3-0.2,0.7-0.4,1
			c-0.3,0.7-0.6,1.3-0.9,1.9c-0.3,0.6-0.7,1.1-1.2,1.7l-0.1,0.1c-0.2,0.2-0.5,0.5-0.7,0.8c0,0-0.1,0.1-0.1,0.1
			c-0.2,0.2-0.4,0.4-0.7,0.6c-0.4,0.3-0.8,0.7-1.2,1c-0.4,0.3-0.9,0.6-1.3,0.8c-0.2,0.1-0.5,0.2-0.7,0.3c-1.7,0.8-3.6,1.2-5.6,1.2
			c-6.6,0-12.2-4.8-13.3-11.1v0c-0.1-0.8-0.2-1.6-0.2-2.4v-4.2c-0.5-3.3-1.6-6.5-3.2-9.3h16.8C994.9,69.3,1000.8,75.2,1001,82.5
			C1001,82.5,1001,82.5,1001,82.5C1001,82.5,1001,82.5,1001,82.5z"/>
		<path class="st2" d="M993.1,95.1c-1.7,0.8-3.6,1.2-5.6,1.2h-81c-3.6,0-6.9-1.4-9.4-3.8c2.4,2.3,5.7,3.8,9.4,3.8
			c6.7,0,12.2-4.8,13.3-11.1v0c0.1-0.8,0.2-1.6,0.2-2.4v-4.1c0,0,0-0.1,0-0.1c0.5-3.3,1.6-6.4,3.2-9.2h47.5c1.6,2.8,2.7,5.9,3.2,9.3
			v4.2c0,0.8,0.1,1.6,0.2,2.4v0c1.1,6.3,6.6,11.1,13.3,11.1C989.5,96.2,991.4,95.8,993.1,95.1z"/>
		<path class="st3" d="M995.1,93.9c-0.4,0.3-0.9,0.6-1.3,0.8C994.3,94.5,994.7,94.2,995.1,93.9z"/>
		<path class="st3" d="M996.4,92.9c-0.4,0.4-0.8,0.7-1.2,1C995.6,93.6,996,93.3,996.4,92.9z"/>
		<path class="st3" d="M1000,87.8c-0.3,0.7-0.6,1.3-0.9,1.9C999.4,89.1,999.8,88.5,1000,87.8z"/>
		<path class="st3" d="M1001,83.5c-0.1,1.2-0.3,2.3-0.6,3.3L1001,83.5z"/>
		<path class="st3" d="M1001,82.7C1001,82.8,1001,82.8,1001,82.7c0,0.1,0,0.2,0,0.4c0-0.2,0-0.3,0-0.5
			C1001,82.6,1001,82.7,1001,82.7z"/>
		<path class="st2" d="M981.9,123.5c-6,5.1-13.2,8.9-21,11c-4.4,1.2-9.1,1.8-13.8,1.8c-4.8,0-9.4-0.6-13.9-1.8
			c-7.9-2.1-15.1-6-21.2-11.1c-3.4-5.2-2.8-12.3,1.8-16.9c4.7-4.6,11.8-5.2,17.1-1.6c0.1,0.1,0.3,0.2,0.4,0.3c4.4,3.1,9.9,5,15.7,5
			c5.7,0,10.9-1.7,15.3-4.7c0,0,0.1,0,0.1-0.1c0.2-0.1,0.4-0.3,0.6-0.4c0,0,0.1-0.1,0.1-0.1c5.2-3.5,12.4-2.9,17,1.7
			C984.7,111.2,985.3,118.3,981.9,123.5z"/>
	</g>
</g>
</svg>
